<?xml version="1.0" standalone="no"?><!DOCTYPE svg PUBLIC "-//W3C//DTD SVG 1.1//EN" "http://www.w3.org/Graphics/SVG/1.1/DTD/svg11.dtd"><svg t="1506513507255" class="icon" style="" viewBox="0 0 1048 1024" version="1.1" xmlns="http://www.w3.org/2000/svg" p-id="6733" xmlns:xlink="http://www.w3.org/1999/xlink" width="204.6875" height="200"><defs><style type="text/css"></style></defs><path d="M422.902967 794.893344c-11.496391 0-22.992783-4.927025-30.38332-13.138733L172.44587 539.509222c-15.602245-16.423416-13.959904-42.700882 2.463513-58.303127 16.423416-15.602245 42.700882-13.959904 58.303127 2.463512l190.511628 209.398557 551.005613-583.852446c15.602245-16.423416 41.879711-17.244587 58.303128-1.642342 16.423416 15.602245 17.244587 41.879711 1.642342 58.303128l-581.388934 615.878107c-8.211708 8.211708-18.886929 13.138733-30.38332 13.138733z" p-id="6734" fill="#bfbfbf"></path><path d="M490.238974 1002.649559C220.073777 1002.649559 0 782.575782 0 512.410585S220.073777 22.171612 490.238974 22.171612c112.500401 0 218.431435 36.952686 306.296712 107.573376 10.675221 8.211708 12.317562 23.813953 4.105854 34.489174-8.211708 10.675221-23.813953 12.317562-34.489174 4.105854C686.498797 104.288693 591.242983 71.44186 490.238974 71.44186 247.172414 71.44186 49.270249 269.344026 49.270249 512.410585s197.902165 440.968725 440.968725 440.968725 440.968725-197.902165 440.968724-440.968725c0-36.131516-4.105854-71.44186-12.317562-105.931034-3.284683-13.138733 4.927025-26.277466 18.065758-29.562149 13.138733-3.284683 26.277466 4.927025 29.562149 18.065758 9.032879 37.773857 13.959904 78.011227 13.959904 117.427425 0 270.165196-220.073777 490.238974-490.238973 490.238974z" p-id="6735" fill="#bfbfbf"></path></svg>