<?xml version="1.0" standalone="no"?><!DOCTYPE svg PUBLIC "-//W3C//DTD SVG 1.1//EN" "http://www.w3.org/Graphics/SVG/1.1/DTD/svg11.dtd"><svg t="1509945216120" class="icon" style="" viewBox="0 0 1024 1024" version="1.1" xmlns="http://www.w3.org/2000/svg" p-id="7987" xmlns:xlink="http://www.w3.org/1999/xlink" width="200" height="200"><defs><style type="text/css"></style></defs><path d="M515.886005 15.565511c6.592139 0.575098 13.178137 1.24434 19.779486 1.709945 47.594995 3.346211 93.674473 13.636578 138.278343 30.460756 57.847499 21.818935 109.776196 53.470819 155.926282 94.608751 0.234337 0.208754 0.385786 0.51063 1.000793 1.346671-11.647271 12.920264-23.38971 25.947975-35.249829 39.101553C688.631348 91.329055 565.758879 53.450353 426.563654 75.399247c-109.025089 17.192567-199.10878 70.074985-269.658579 154.781202C24.910854 388.659881 20.445146 616.018052 143.897829 779.441075 273.784038 951.381076 501.585301 1003.52262 690.345386 912.956951 875.902522 823.928289 987.756029 609.639784 924.149363 386.919237c16.804734-4.991688 33.618679-9.986445 51.086515-15.175631 1.686409 5.947456 3.444449 11.595083 4.88731 17.322527 12.82919 50.901297 18.014282 102.560864 14.506389 154.959258-7.169283 107.108436-44.632523 202.517413-112.984261 285.196461-66.875107 80.892355-151.33573 135.480624-252.634858 163.447583-55.248302 15.253402-111.530143 20.288069-168.735006 15.94925-62.177108-4.716418-121.320113-20.580734-177.388083-47.64923-63.240323-30.532387-117.683283-72.649624-163.154917-126.20333-53.349045-62.833047-89.042989-134.509507-106.945731-214.992539-6.230911-28.01403-9.872858-56.379055-11.051707-85.058235-0.084934-2.072195-0.488117-4.13211-0.743944-6.199189 0-10.363022 0-20.72502 0-31.088042 0.24457-1.741667 0.545422-3.477194 0.724501-5.225001 2.072195-20.261463 3.332908-40.645722 6.354731-60.764945 5.884011-39.178301 17.276479-76.915787 32.879851-113.310695 24.949228-58.19747 59.721173-109.87955 104.329137-154.824181 53.497425-53.901631 116.019387-93.7635 187.621145-119.17424C374.252241 29.453822 416.822802 20.344351 460.653053 17.35118c7.40669-0.505513 14.801101-1.186012 22.201651-1.785669C493.864456 15.565511 504.875231 15.565511 515.886005 15.565511z" p-id="7988" fill="#19AD17"></path><path d="M205.44765 437.497169c75.762521 75.821873 151.836127 151.953807 228.108255 228.285287 172.575474-172.689061 344.779488-345.007685 516.549619-516.89345 24.556279 24.582885 48.63058 48.684816 72.532967 72.612785C826.81657 417.325757 630.276289 613.866039 434.008206 810.135144c-100.216469-100.193956-200.592574-200.549595-300.633035-300.567543C156.979776 485.962997 180.986539 461.957257 205.44765 437.497169z" p-id="7989" fill="#19AD17"></path></svg>