<?xml version="1.0" standalone="no"?><!DOCTYPE svg PUBLIC "-//W3C//DTD SVG 1.1//EN" "http://www.w3.org/Graphics/SVG/1.1/DTD/svg11.dtd"><svg t="1509935463946" class="icon" style="" viewBox="0 0 1024 1024" version="1.1" xmlns="http://www.w3.org/2000/svg" p-id="2004" xmlns:xlink="http://www.w3.org/1999/xlink" width="200" height="200"><defs><style type="text/css"></style></defs><path d="M982.747 509.963c-9.781 18.417-25.123 24.338-45.743 24.305-279.377-0.427-558.753-0.271-838.13-0.383-7.617-0.003-15.636-0.157-22.768-2.436-13.847-4.423-21.81-15.003-21.28-29.554 0.489-13.409 8.21-23.494 21.276-27.252 7.948-2.287 16.692-2.461 25.081-2.464 277.838-0.115 555.675 0.049 833.513-0.385 21.138-0.034 37.883 4.608 48.054 24.31l0.001 13.858zM752.513 132.009c-31.533 0-63.063 0.037-94.597-0.014-19.273-0.032-33.261-7.574-35.573-28.251-1.901-16.996 12.819-31.581 34.867-31.853 65.354-0.803 130.833-2.49 196.061 0.54 58.707 2.725 93.596 43.419 93.732 101.71 0.121 51.529 0.165 103.058-0.057 154.587-0.102 23.589-10.635 37.104-28.245 37.499-17.367 0.387-29.233-13.69-29.422-36.713-0.393-47.681-0.011-95.367-0.218-143.050-0.178-41.028-13.209-54.159-53.488-54.341-27.687-0.124-55.375-0.022-83.062-0.022l0.001-0.090zM754.999 934.561c-32.298 0-64.62 0.735-96.887-0.253-22.393-0.686-36.394-13.951-35.994-31.049 0.414-17.658 14.023-28.965 37.182-29.12 56.907-0.38 113.819-0.123 170.729-0.178 48.116-0.048 58.988-11.158 59.075-60.345 0.084-46.912 0.065-93.825 0.166-140.735 0.030-13.313 4.991-23.898 17.446-30.1 10.080-5.018 19.395-3.052 28.227 3.053 9.101 6.292 12.038 15.423 12.026 26.027-0.085 58.448 1.095 116.927-0.499 175.33-1.314 48.078-44.384 85.181-99.19 87.286-30.716 1.181-61.514 0.212-92.277 0.212v-0.13zM268.123 132.171c-25.36 0-50.732-0.465-76.078 0.122-29.163 0.675-43.734 15.257-44.018 44.567-0.491 50.717-0.222 101.44-0.212 152.159 0.002 14.702-3.397 27.594-18.102 34.414-18.388 8.531-38.181-2.996-40.981-26.641-2.697-22.766-2.228-45.997-1.911-69.007 0.487-35.3-2.972-70.745 2.141-105.892 8.065-55.44 42.996-88.213 99.323-90.098 51.429-1.722 102.967-0.841 154.448-0.25 24.084 0.276 38.49 13.015 38.197 31.131-0.305 18.793-13.588 29.019-39.031 29.322-24.589 0.293-49.183 0.063-73.775 0.063l0.001 0.107zM269.057 874.105c26.125 0 52.252-0.201 78.373 0.068 18.485 0.19 31.242 8.361 33.275 27.904 1.753 16.852-11.468 31.589-32.033 31.931-56.059 0.931-112.317 2.77-168.175-0.79-55.973-3.568-89.194-39.708-92.604-99.075-2.991-52.071-1.17-104.451-0.567-156.685 0.21-18.139 7.237-33.59 27.687-37.133 18.261-3.162 32.351 11.724 32.614 35.418 0.546 49.171 0.091 98.353 0.285 147.527 0.146 36.816 13.407 50.289 49.685 50.642 23.818 0.233 47.639 0.044 71.459 0.044l-0.001 0.151z" p-id="2005" fill="#ffffff"></path></svg>